<?xml version="1.0" standalone="no"?>
<!DOCTYPE svg PUBLIC "-//W3C//DTD SVG 20010904//EN"
 "http://www.w3.org/TR/2001/REC-SVG-20010904/DTD/svg10.dtd">
<svg version="1.0" xmlns="http://www.w3.org/2000/svg"
 width="300.000000pt" height="319.000000pt" viewBox="0 0 300.000000 319.000000"
 preserveAspectRatio="xMidYMid meet">
<g transform="translate(0.000000,319.000000) scale(0.100000,-0.100000)"
fill="#ff0000" stroke="none">
<path d="M1352 3180 c-247 -26 -478 -109 -686 -247 -136 -90 -319 -273 -409
-409 -234 -354 -309 -774 -211 -1183 42 -177 110 -330 216 -489 48 -71 49 -72
72 -56 l24 15 -55 79 c-92 134 -202 395 -177 420 7 7 50 1 135 -20 68 -16 139
-30 157 -30 47 0 134 24 222 60 40 16 103 35 139 41 36 5 67 12 70 14 2 3 -11
11 -30 19 -23 10 -55 12 -105 9 -49 -4 -73 -2 -79 6 -10 17 36 83 109 158 34
35 59 63 56 63 -3 0 -50 -20 -105 -45 -75 -34 -113 -45 -150 -45 -104 -1 -170
-17 -246 -60 -67 -38 -167 -80 -192 -80 -25 0 22 229 63 310 29 58 135 185
183 220 57 42 92 38 93 -9 0 -22 8 -40 22 -51 25 -20 37 -67 28 -103 -3 -13
-26 -50 -51 -82 -40 -53 -55 -85 -39 -85 3 0 63 19 132 41 101 33 137 50 177
83 28 23 64 52 81 64 17 12 76 62 130 112 55 51 129 112 166 136 40 27 88 71
117 109 54 69 54 68 186 153 76 49 96 68 128 120 21 34 44 62 50 62 7 0 30
-10 52 -23 29 -16 44 -34 55 -64 20 -54 44 -80 103 -109 49 -25 127 -90 127
-105 0 -16 -29 -10 -80 16 -50 25 -85 32 -94 17 -3 -5 22 -35 55 -68 72 -70
82 -89 99 -174 7 -38 26 -88 45 -120 19 -33 35 -75 39 -104 7 -59 43 -124 99
-178 65 -63 112 -91 141 -84 14 3 37 1 51 -4 24 -9 26 -8 20 7 -5 10 -8 29 -9
43 -1 21 4 25 32 28 70 7 121 -65 122 -169 0 -53 -2 -59 -37 -90 -44 -38 -58
-55 -68 -87 -6 -22 -5 -23 15 -12 12 6 68 15 123 19 112 8 138 19 181 76 46
60 96 55 96 -11 0 -19 3 -34 6 -34 3 0 32 16 64 36 32 20 63 34 69 33 14 -5
-47 -187 -93 -276 -19 -38 -59 -106 -89 -151 -51 -76 -53 -82 -37 -97 9 -8 19
-15 23 -15 4 0 28 33 55 72 298 445 341 995 116 1477 -141 301 -414 574 -715
715 -239 111 -534 162 -787 136z m440 -180 c484 -102 880 -435 1047 -880 39
-103 81 -279 81 -338 0 -37 -45 -78 -95 -88 -68 -12 -102 3 -188 83 -44 41
-97 82 -116 90 -60 25 -224 125 -259 157 -18 17 -43 53 -57 81 -30 65 -97 141
-132 150 -77 19 -284 115 -371 171 -54 36 -108 64 -122 64 -20 0 -33 -12 -62
-59 -40 -64 -96 -108 -224 -176 -81 -44 -97 -57 -135 -109 -18 -24 -88 -79
-179 -142 -83 -56 -171 -120 -195 -143 -30 -28 -54 -41 -73 -41 -35 0 -173 69
-230 115 -52 42 -75 43 -127 8 -51 -33 -189 -150 -234 -197 -19 -20 -38 -36
-41 -36 -23 0 29 272 77 400 185 499 633 843 1193 914 83 10 347 -4 442 -24z"/>
<path d="M1414 2105 c-53 -46 -208 -133 -279 -156 l-70 -23 62 -13 c82 -16
110 -32 163 -89 25 -26 78 -79 118 -118 51 -51 72 -79 72 -97 0 -38 27 -69 59
-69 29 0 43 -11 55 -44 4 -13 -3 -26 -25 -45 -17 -14 -55 -48 -84 -74 -56 -51
-91 -64 -225 -87 -39 -6 -70 -16 -70 -21 0 -13 70 -29 187 -40 130 -12 159 -8
209 32 38 31 40 31 124 25 47 -3 101 -2 120 3 19 6 55 15 80 22 80 21 77 19
56 35 -11 8 -40 14 -65 14 -105 0 -166 39 -196 125 -30 85 -55 115 -159 192
-126 94 -153 119 -177 165 -31 61 -26 86 34 141 48 46 101 130 89 142 -13 13
-51 3 -78 -20z"/>
<path d="M865 1056 c-34 -15 -675 -553 -675 -566 0 -4 32 -33 70 -64 l70 -57
29 23 c16 13 60 51 97 84 l69 61 60 -48 c71 -58 167 -110 250 -135 33 -10 61
-19 62 -19 2 -1 -6 -57 -17 -125 -17 -99 -18 -125 -8 -132 18 -11 169 -61 172
-57 7 10 106 811 106 854 0 64 -31 119 -88 159 -34 24 -55 31 -105 33 -38 2
-74 -2 -92 -11z m105 -181 c10 -12 7 -48 -15 -190 -26 -164 -29 -175 -49 -175
-43 0 -246 116 -246 140 0 15 261 240 279 240 10 0 24 -7 31 -15z"/>
<path d="M1954 1045 c-58 -29 -89 -66 -105 -127 -11 -38 -5 -99 44 -467 31
-233 58 -425 60 -427 5 -5 160 46 171 57 6 5 2 56 -9 129 -10 66 -17 121 -14
123 2 2 39 16 82 31 92 32 175 79 238 135 l47 41 96 -86 97 -86 55 43 c31 24
65 52 77 62 l22 17 -25 21 c-14 12 -159 134 -323 273 -164 138 -315 259 -335
268 -54 25 -119 23 -178 -7z m256 -275 l131 -115 -38 -34 c-41 -36 -185 -111
-215 -111 -21 0 -21 1 -52 195 -37 230 -21 236 174 65z"/>
<path d="M1400 485 l0 -485 95 0 95 0 0 485 0 485 -95 0 -95 0 0 -485z"/>
</g>
</svg>
