<?xml version="1.0" standalone="no"?>
<!DOCTYPE svg PUBLIC "-//W3C//DTD SVG 20010904//EN"
 "http://www.w3.org/TR/2001/REC-SVG-20010904/DTD/svg10.dtd">
<svg version="1.0" xmlns="http://www.w3.org/2000/svg"
 width="26.000000pt" height="34.000000pt" viewBox="0 0 26.000000 34.000000"
 preserveAspectRatio="xMidYMid meet">
<g transform="translate(0.000000,34.000000) scale(0.100000,-0.100000)"
fill="#ff0000" stroke="none">
<path d="M40 325 c14 -8 35 -14 48 -15 12 0 22 -4 22 -10 0 -5 -9 -10 -20 -10
-23 0 -70 -42 -70 -61 0 -7 13 -1 28 14 33 32 42 34 35 9 -2 -10 -20 -24 -39
-31 -43 -16 -45 -44 -4 -61 17 -7 35 -21 41 -31 13 -25 -3 -24 -26 1 -24 26
-39 26 -25 -1 7 -11 30 -29 52 -39 l40 -17 -35 -7 c-32 -6 -86 -50 -75 -61 2
-3 20 6 38 20 41 30 60 32 60 5 0 -11 6 -20 14 -20 9 0 12 7 9 20 -8 29 25 26
67 -5 18 -14 36 -23 38 -20 11 11 -43 55 -75 61 l-35 7 40 17 c22 10 45 28 52
39 14 27 -1 27 -25 1 -23 -26 -35 -26 -28 0 3 11 11 20 17 20 6 0 22 7 34 16
27 19 16 48 -22 58 -13 3 -27 13 -30 22 -10 27 0 27 29 -1 32 -28 43 -27 24 3
-13 20 -30 31 -74 48 -16 6 -13 8 18 14 21 4 43 12 50 19 13 13 5 14 -45 2
-26 -6 -39 -5 -43 3 -4 8 -6 8 -11 -1 -3 -8 -15 -9 -37 -2 -48 14 -66 11 -37
-6z m98 -57 c19 -19 14 -28 -13 -28 -27 0 -28 1 -19 24 7 19 16 20 32 4z m22
-78 c0 -28 -3 -30 -35 -30 -32 0 -35 2 -35 30 0 28 3 30 35 30 32 0 35 -2 35
-30z m-90 0 c0 -22 -8 -25 -30 -10 -13 9 -13 11 0 20 22 15 30 12 30 -10z
m135 0 c0 -7 -6 -15 -12 -17 -8 -3 -13 4 -13 17 0 13 5 20 13 18 6 -3 12 -11
12 -18z m-55 -54 c0 -16 -14 -36 -26 -36 -8 0 -14 2 -14 4 0 2 -3 11 -6 20 -5
12 0 16 20 16 14 0 26 -2 26 -4z"/>
</g>
</svg>
