<?xml version="1.0" encoding="utf-8"?>
<!DOCTYPE svg PUBLIC "-//W3C//DTD SVG 1.1//EN" "http://www.w3.org/Graphics/SVG/1.1/DTD/svg11.dtd">
<svg version="1.1" xmlns="http://www.w3.org/2000/svg" xmlns:xlink="http://www.w3.org/1999/xlink" x="0px" y="0px" viewBox="0 0 1000 1000" enable-background="new 0 0 1000 1000" xml:space="preserve">
<g fill="#ff0000">
<g><path d="M500,10C229.4,10,10,229.4,10,500c0,270.6,219.4,490,490,490c270.6,0,490-219.4,490-490C990,229.4,770.6,10,500,10z M443.4,878c-104.1-17.1-187.5-64.9-248-147.7c-92.1-126.1-103.8-262.3-35.5-402.6c57.5-118,178.6-192.5,282.5-201.7c0,58.9,0,116.3,0,176.7c-18.6,0-36.3,0-54.1,0c-77.8,0.1-125.8,48-125.9,125.9c-0.1,48.7-0.1,97.3,0,146c0.3,76,48,123.8,123.7,124c9,0,18-0.1,27,0.1c34.2,0.5,29.9-4.8,30.1,31.1C443.5,777.9,443.4,825.9,443.4,878z M497.9,594.1c-34.2,0-68.5,0.1-102.7-0.1c-20.8-0.1-25.3-4.6-25.4-25.7c-0.2-45-0.2-90.1,0-135.1c0.1-20.9,4.3-25.1,25.8-25.1c68.5-0.2,136.9-0.2,205.4,0c21.1,0.1,25.2,4.3,25.3,25.6c0.2,45,0.3,90.1,0,135.1c-0.1,20.7-4.7,25.2-25.8,25.3C566.4,594.2,532.2,594.1,497.9,594.1z M824.7,694.9c-59.2,102.9-151.4,162.2-271.8,183.5c0-15.2,0-27,0-38.9c0-41.5,0.4-82.9-0.3-124.4c-0.2-12.5,3.7-17.1,16.4-16.5c17.4,0.8,34.8,0.4,52.3,0c59-1.4,109.2-47.4,111.4-106.3c2.3-60.6,2.3-121.4,0-182c-2.3-60.5-53-106.2-114.5-107.4c-20.9-0.4-41.9-0.1-64.5-0.1c0-60.8,0-118.3,0-179c112.6,19.3,201.4,74,261.7,168.6C899.1,423.6,902.2,560.4,824.7,694.9z"/></g>
</svg>