<?xml version="1.0" standalone="no"?>
<!DOCTYPE svg PUBLIC "-//W3C//DTD SVG 20010904//EN"
 "http://www.w3.org/TR/2001/REC-SVG-20010904/DTD/svg10.dtd">
<svg version="1.0" xmlns="http://www.w3.org/2000/svg"
 width="200.000000pt" height="200.000000pt" viewBox="0 0 200.000000 200.000000"
 preserveAspectRatio="xMidYMid meet">

<g transform="translate(0.000000,200.000000) scale(0.100000,-0.100000)"
fill="#e40204" stroke="none">
<path d="M834 1766 c-138 -32 -258 -95 -365 -194 -117 -108 -193 -234 -231
-384 -17 -68 -19 -103 -16 -217 4 -120 8 -146 35 -224 44 -126 86 -190 193
-297 164 -164 292 -220 521 -228 160 -5 251 13 371 73 99 50 154 92 238 182
213 228 262 581 121 868 -94 190 -270 340 -476 405 -90 29 -298 37 -391 16z
m383 -154 c107 -40 177 -87 261 -177 182 -195 225 -478 107 -720 -109 -222
-335 -366 -579 -368 -111 0 -185 17 -294 69 -76 37 -107 59 -172 124 -65 65
-87 96 -124 172 -24 51 -49 118 -56 148 -16 77 -13 224 5 295 46 182 180 346
349 429 106 53 172 66 306 62 99 -3 127 -7 197 -34z"/>
<path d="M577 1413 c-4 -3 -7 -86 -7 -184 l0 -178 128 -3 127 -3 3 -47 3 -47
-128 -3 -128 -3 -3 -182 -2 -183 195 0 195 0 0 65 0 65 -125 0 -125 0 0 50 0
50 125 0 125 0 0 185 0 185 -125 0 -125 0 0 55 0 55 125 0 125 0 0 65 0 65
-188 0 c-104 0 -192 -3 -195 -7z"/>
<path d="M1034 1406 c-3 -7 -4 -35 -2 -62 l3 -49 128 -3 127 -3 0 -54 0 -55
-130 0 -130 0 2 -182 3 -183 128 -3 127 -3 0 -49 0 -49 -127 -3 -128 -3 0 -60
0 -60 195 0 195 0 0 180 0 180 -127 3 -128 3 0 49 0 49 128 3 127 3 0 180 0
180 -193 3 c-157 2 -193 0 -198 -12z"/>
</g>
</svg>
