<?xml version="1.0" standalone="no"?>
<!DOCTYPE svg PUBLIC "-//W3C//DTD SVG 20010904//EN"
 "http://www.w3.org/TR/2001/REC-SVG-20010904/DTD/svg10.dtd">
<svg version="1.0" xmlns="http://www.w3.org/2000/svg"
 width="512.000000pt" height="512.000000pt" viewBox="0 0 512.000000 512.000000"
 preserveAspectRatio="xMidYMid meet">
<metadata>
Created by potrace 1.15, written by Peter Selinger 2001-2017
</metadata>
<g transform="translate(0.000000,512.000000) scale(0.100000,-0.100000)"
fill="#000000" stroke="none">
<path d="M0 2560 l0 -2560 2560 0 2560 0 0 2560 0 2560 -2560 0 -2560 0 0
-2560z m3065 1005 c149 -27 327 -85 453 -149 166 -84 374 -256 497 -409 l65
-82 -182 -182 c-101 -101 -185 -183 -188 -183 -3 0 -18 21 -34 46 -134 211
-372 379 -626 441 -57 14 -114 18 -240 18 -200 -1 -279 -18 -445 -100 -279
-136 -471 -376 -547 -682 -26 -104 -31 -329 -10 -428 72 -334 278 -596 579
-737 138 -65 254 -90 418 -91 188 -2 309 25 470 105 192 96 364 269 464 465
11 23 21 47 21 53 0 7 -151 10 -470 10 -269 0 -470 4 -470 9 0 5 113 120 251
255 l251 246 515 0 516 0 -6 -168 c-11 -310 -91 -562 -259 -814 -81 -121 -282
-322 -403 -405 -532 -359 -1198 -360 -1735 -2 -122 82 -315 272 -397 394 -120
178 -199 364 -244 575 -33 152 -33 448 0 600 32 151 63 238 136 385 210 424
601 723 1070 820 144 30 412 35 550 10z m-2035 -1540 c0 -898 -4 -1505 -9
-1505 -18 0 -117 84 -206 174 -100 102 -176 199 -253 326 l-52 84 0 1213 0
1213 260 0 260 0 0 -1505z"/>
</g>
</svg>
