<?xml version="1.0" standalone="no"?><!DOCTYPE svg PUBLIC "-//W3C//DTD SVG 1.1//EN" "http://www.w3.org/Graphics/SVG/1.1/DTD/svg11.dtd"><svg class="icon" height="512" viewBox="0 0 1024 1024" version="1.1" xmlns="http://www.w3.org/2000/svg"><path d="M600.322682 590.945524c-32.621714-18.529524-67.82781-31.451429-101.912381-46.811429-67.82781-30.524952-136.192-59.928381-203.727238-91.184762-35.888762-16.62781-67.388952-40.033524-85.625905-76.702476-28.867048-58.026667-16.286476-132.973714 29.500952-180.272762 12.921905-13.360762 27.306667-25.014857 43.544381-34.230857-1.414095 3.754667-2.633143 7.558095-4.144761 11.215238-12.726857 31.110095-8.240762 66.413714 22.674285 87.625143 25.35619 17.408 54.223238 27.501714 81.92 40.033524 17.017905 7.704381 33.596952 16.579048 51.882667 21.26019 51.2 26.233905 104.838095 47.055238 157.013333 71.046096 51.151238 23.454476 104.155429 42.910476 153.502476 70.070857 42.861714 23.552 74.849524 56.758857 85.430858 106.544762 13.994667 65.731048-10.386286 125.513143-66.072381 162.425904-5.997714 3.998476-12.190476 7.753143-18.285715 11.654096-4.144762-3.900952 0.097524-6.582857 1.804191-9.167238a52.175238 52.175238 0 0 0 7.509333-18.91962c5.217524-28.574476-7.314286-54.467048-34.182095-71.143619-21.699048-13.409524-45.641143-22.089143-68.754286-32.182857-17.16419-7.558095-33.353143-17.554286-52.077714-21.26019" fill="#026FA7" /><path d="M424.731063 645.315048c33.060571 17.603048 68.022857 31.158857 102.107428 46.421333 67.096381 30.183619 134.92419 58.806857 201.484191 90.112 42.76419 20.138667 76.995048 50.663619 90.745905 98.011429 13.799619 47.494095 5.315048 92.355048-20.967619 133.948952-2.779429 4.486095-5.12 9.069714-11.897905 3.900952-54.272-41.350095-115.712-69.485714-177.444572-96.938666-103.228952-45.933714-206.701714-91.37981-309.638095-137.898667C263.231634 766.585905 231.000015 744.448 209.203444 710.265905c-42.422857-66.56-22.820571-157.062095 44.324571-205.141334 7.41181-5.315048 14.189714-11.800381 23.454476-14.09219 3.023238 2.681905 0.341333 5.36381-0.487619 7.558095-16.530286 44.227048-5.997714 74.069333 35.303619 96.646095 16.871619 9.216 34.425905 17.310476 52.175239 24.771048 20.23619 8.484571 39.594667 19.114667 60.757333 25.307429" fill="#13A524" /><path d="M434.434682 321.877333c-18.285714-4.681143-34.913524-13.55581-51.931429-21.26019-27.648-12.53181-56.515048-22.625524-81.871238-40.033524-30.915048-21.211429-35.401143-56.515048-22.674285-87.625143 1.511619-3.657143 2.730667-7.460571 4.096-11.215238l160.085333-98.108952C475.004587 43.495619 508.11392 23.698286 540.686872 3.120762c6.92419-4.437333 11.556571-3.998476 18.139429 0.390095 70.022095 46.713905 72.167619 146.870857 3.169524 197.87581-35.157333 26.038857-74.313143 46.08-111.372191 69.339428l-6.192762 3.754667c-24.33219 15.457524-26.477714 25.648762-9.99619 47.396571" fill="#88B4D3" /><path d="M495.874682 905.411048c-2.925714 6.436571-9.801143 7.996952-15.018667 11.215238C440.091063 942.372571 400.057539 969.240381 358.36611 993.621333 278.884206 1040.091429 189.89373 992.49981 171.803063 911.506286c-2.730667-12.239238-1.072762-20.333714 11.556571-27.404191C217.736777 864.841143 251.138682 843.971048 284.784396 823.53981c8.338286-5.071238 15.555048-6.875429 25.551238-2.29181 61.001143 27.89181 122.489905 54.905905 183.783619 82.261333 0.682667 0.292571 1.072762 1.170286 1.755429 1.901715" fill="#89B4D3" /><path d="M820.970301 287.890286c-0.585143 60.611048-29.45219 94.98819-73.191619 120.929524-16.432762 9.752381-29.549714 10.48381-46.713905 2.486857-55.344762-25.84381-111.420952-50.127238-167.155809-75.142096-2.681905-1.170286-7.41181-0.926476-7.265524-5.022476 0.097524-3.364571 3.900952-4.778667 6.680381-6.436571 72.313905-43.495619 144.725333-86.844952 216.892952-130.633143 6.192762-3.754667 10.435048-3.803429 16.091429 0.292571 34.279619 25.014857 54.174476 57.58781 54.662095 93.525334" fill="#AED4A1" /><path d="M600.322682 590.945524c18.773333 3.705905 34.962286 13.702095 52.077714 21.26019 23.161905 10.093714 47.055238 18.773333 68.754286 32.182857 26.86781 16.676571 39.448381 42.569143 34.182095 71.143619a52.175238 52.175238 0 0 1-7.509333 18.91962c-1.706667 2.633143-5.948952 5.266286-1.804191 9.167238-5.851429 5.997714-12.092952 8.192-20.48 4.437333-61.537524-27.648-123.12381-55.100952-184.661333-82.602667-2.194286-0.975238-4.193524-2.194286-7.899429-4.096l38.278096-22.137904c5.510095-3.218286 11.068952-6.534095 16.335238-10.191239 17.408-11.995429 19.651048-18.822095 12.726857-38.083047" fill="#88B4D3" /><path d="M424.731063 645.315048c-21.211429-6.192762-40.569905-16.871619-60.806095-25.356191a542.72 542.72 0 0 1-52.175238-24.771047c-41.301333-22.576762-51.785143-52.419048-35.352381-96.646096 0.828952-2.194286 3.510857-4.87619 0.487619-7.558095 3.998476-8.533333 10.532571-8.484571 17.993142-5.217524l119.125334 52.46781c20.918857 9.264762 41.935238 18.432 62.756571 27.843047 3.364571 1.560381 9.020952 1.755429 8.923429 6.680381-0.048762 3.705905-4.924952 4.827429-7.996953 6.631619-13.848381 8.143238-28.330667 15.36-41.496381 24.527238-17.846857 12.385524-26.770286 17.408-11.459047 41.398858" fill="#AED4A1" /></svg>